:SAMPLES-PER-SECOND 30
:FRAME-RANGE 1-744
:FULLY-SPECIFIED
:DEGREES
652
root  -74.8848 38.9219 -14.4832 -172.864 54.1766 -172.995
RightUpLeg  -11.8449 -3.71852 3.55848
RightLeg  19.2841 3.40891 2.23182
RightFoot  -9.23334 -0.0538809 -0.470793
RightToes  -5.28216e-011 1.2921e-014 -6.02303e-014
Spine  -0.367815 -0.870452 9.65763
Spine1  8.77122 -0.806492 -0.502682
HEad  -10.4353 -17.4112 13.6572
LeftShoulder1  1.08358 -0.702601 -20.8758
LeftArm  -9.52656 6.39073 -52.1062
LeftForeArm  36.2621 1.57139 -9.99363
LeftHand  -0.0400028 4.95803 4.78617
RightShoulder  1.79055 2.24846 26.2205
RightArm  -23.4535 11.8593 55.7194
RightForeArm  66.6184 -5.46051 3.67415
RightHand  0.214569 -6.85873 -18.0767
LeftUpLeg  -25.8406 -0.485905 10.8198
LeftLeg  39.8481 8.78542 8.14299
LeftFoot  -2.22131 0.779112 -9.58657
LeftToes  -9.4837e-011 -7.11147e-011 -1.07582e-011
653
root  -74.3451 39.0225 -15.163 -172.592 55.8153 -173.19
RightUpLeg  -10.3994 -3.66037 2.90331
RightLeg  18.194 5.07023 2.54197
RightFoot  -9.89655 -0.0621687 -0.385035
RightToes  -5.28216e-011 1.2921e-014 -6.02303e-014
Spine  -0.568919 -0.750775 8.5027
Spine1  8.68919 -0.816748 -0.489135
HEad  -9.83307 -17.4994 13.4322
LeftShoulder1  1.08316 -0.700426 -20.8803
LeftArm  -9.14823 8.16387 -50.9737
LeftForeArm  34.9188 3.44528 -10.1766
LeftHand  -0.0306094 5.2141 4.6768
RightShoulder  1.83227 2.42967 25.9216
RightArm  -21.0559 15.9 58.2549
RightForeArm  66.7362 -5.58859 4.47275
RightHand  0.170356 -6.55666 -18.2915
LeftUpLeg  -24.5998 -3.89289 12.715
LeftLeg  27.9972 11.7742 7.03458
LeftFoot  -0.553737 0.823147 -8.67262
LeftToes  -9.4837e-011 -7.11147e-011 -1.07582e-011
654
root  -73.8069 39.0836 -15.8822 -171.698 57.2328 -172.75
RightUpLeg  -9.10931 -3.66412 2.46369
RightLeg  17.2166 6.52285 2.8327
RightFoot  -10.5609 -0.069863 -0.242441
RightToes  -5.28216e-011 1.2921e-014 -6.02303e-014
Spine  -1.16623 -0.723094 7.87402
Spine1  9.04673 -0.849801 -0.725426
HEad  -9.8584 -18.0276 13.8953
LeftShoulder1  1.06606 -0.649222 -20.792
LeftArm  -9.09058 10.0726 -50.147
LeftForeArm  34.8251 4.79313 -10.2215
LeftHand  -0.0403747 4.6746 2.86989
RightShoulder  1.89086 2.71985 25.3365
RightArm  -18.4198 19.0357 61.0424
RightForeArm  66.2617 -5.75659 5.38546
RightHand  0.158954 -6.4898 -18.2044
LeftUpLeg  -22.8215 -7.64116 15.3696
LeftLeg  14.7942 12.4522 4.12514
LeftFoot  2.11399 1.18869 -10.1667
LeftToes  -9.4837e-011 -7.11147e-011 -1.07582e-011
655
root  -73.2865 39.1238 -16.598 -170.191 58.5411 -171.733
RightUpLeg  -7.83673 -3.61557 2.23097
RightLeg  15.9856 8.04347 3.09142
RightFoot  -11.1758 -0.0759436 0.180832
RightToes  -5.28216e-011 1.2921e-014 -6.02303e-014
Spine  -1.49405 -0.649847 7.19413
Spine1  8.95475 -0.785426 -0.928134
HEad  -10.0371 -18.7952 14.8091
LeftShoulder1  1.07301 -0.697356 -20.6313
LeftArm  -9.23526 12.1951 -49.5991
LeftForeArm  34.9716 5.71774 -10.2079
LeftHand  -0.0379163 4.55606 2.10163
RightShoulder  1.943 2.94516 25.0306
RightArm  -15.3703 21.2509 63.0674
RightForeArm  64.8453 -6.00872 6.61095
RightHand  0.134011 -6.33556 -18.1043
LeftUpLeg  -21.3405 2.8181 12.1384
LeftLeg  2.76855 -4.28265 4.59859
LeftFoot  2.29561 1.29896 -10.9556
LeftToes  -9.4837e-011 -7.11147e-011 -1.07582e-011
656
root  -72.7602 39.0743 -17.3779 -168.553 59.3755 -170.308
RightUpLeg  -6.61944 -3.56735 2.18179
RightLeg  15.473 8.85481 3.15002
RightFoot  -12.0993 -0.0805945 0.199708
RightToes  -5.28216e-011 1.2921e-014 -6.02303e-014
Spine  -1.48967 -0.682477 6.27747
Spine1  8.54164 -1.00641 -0.255447
HEad  -10.3473 -19.4758 16.1355
LeftShoulder1  1.03686 -0.538602 -20.8084
LeftArm  -9.40895 14.2304 -49.3295
LeftForeArm  34.9406 6.33477 -10.219
LeftHand  -0.0370119 4.7442 2.43518
RightShoulder  1.98516 3.13317 24.7695
RightArm  -13.1344 22.7666 64.7042
RightForeArm  63.7782 -4.9792 7.6113
RightHand  0.0978759 -6.10427 -18.0539
LeftUpLeg  -21.5329 5.93199 12.5945
LeftLeg  -2.94184 -12.0198 4.03555
LeftFoot  -3.40873 0.900937 -12.6595
LeftToes  -9.4837e-011 -7.11147e-011 -1.07582e-011
657
root  -72.2976 38.8814 -18.2787 -167.125 59.2744 -168.984
RightUpLeg  -5.90206 -3.66102 1.99247
RightLeg  16.411 9.21875 3.24202
RightFoot  -14.0276 -0.0754221 0.833283
RightToes  -5.28216e-011 1.2921e-014 -6.02303e-014
Spine  -1.09766 -0.829919 6.02359
Spine1  7.97283 -1.31238 0.305332
HEad  -11.4433 -20.2513 18.254
LeftShoulder1  1.04051 -0.556324 -20.7773
LeftArm  -9.27392 15.0755 -49.3886
LeftForeArm  34.396 7.1665 -10.3432
LeftHand  -0.0171675 5.69401 3.7103
RightShoulder  1.99884 3.14544 24.9314
RightArm  -11.3912 23.6037 65.3925
RightForeArm  62.4527 -2.44509 8.67293
RightHand  0.0488815 -5.78612 -18.0608
LeftUpLeg  -23.5159 6.14227 12.9282
LeftLeg  -1.02831 -13.82 3.60379
LeftFoot  -6.60244 0.693622 -15.7278
LeftToes  -9.4837e-011 -7.11147e-011 -1.07582e-011
